<?xml version="1.0" encoding="UTF-8"?>
<svg xmlns="http://www.w3.org/2000/svg" xmlns:xlink="http://www.w3.org/1999/xlink" width="24px" height="24px" viewBox="0 0 24 24" version="1.1">
    <!-- Generator: Sketch 51.3 (57544) - http://www.bohemiancoding.com/sketch -->
    <title>118 - Home </title>
    <desc>Created with Sketch.</desc>
    <defs/>
    <g id="Page-1" stroke="none" stroke-width="1" fill="none" fill-rule="evenodd">
        <g id="118---Home-">
            <path d="M22.22,12.7 C21.8638577,12.9537039 21.4196602,13.0512107 20.99,12.97 C20.6855908,12.9255629 20.4006822,12.7935321 20.17,12.59 L11.99,5.26 L3.8,12.59 C3.57289642,12.7871287 3.29628608,12.9185186 3,12.97 C2.56716426,13.0512047 2.11988815,12.9538139 1.76,12.7 C1.29960974,12.3663449 1.01578109,11.8415602 0.988551611,11.2736311 C0.961322135,10.705702 1.19364247,10.1561704 1.62,9.78 L10.68,1.52 C11.4170417,0.829991305 12.5629583,0.829991305 13.3,1.52 L22.36,9.78 C22.7841555,10.1573913 23.014887,10.7063597 22.9876977,11.2734513 C22.9605084,11.8405428 22.6783152,12.364919 22.22,12.7 Z" id="Shape" fill="#F4608A" fill-rule="nonzero"/>
            <path d="M20.99,12.97 L20.99,22 C20.9884072,22.5516236 20.5416236,22.9984072 19.99,23 L15,23 L15,15 C14.9984072,14.4483764 14.5516236,14.0015928 14,14 L10,14 C9.44837635,14.0015928 9.00159279,14.4483764 9,15 L9,23 L3.99,23 C3.43837635,22.9984072 2.99159279,22.5516236 2.99,22 L2.99,13.02 L3,13.02 L3,12.97 C3.29628608,12.9185186 3.57289642,12.7871287 3.8,12.59 L11.99,5.26 L20.17,12.59 C20.4006822,12.7935321 20.6855908,12.9255629 20.99,12.97 Z" id="Shape" fill="#D7DBDD" fill-rule="nonzero"/>
            <path d="M15,15 L15,23 L9,23 L9,15 C9.00159279,14.4483764 9.44837635,14.0015928 10,14 L14,14 C14.5516236,14.0015928 14.9984072,14.4483764 15,15 Z" id="Shape" fill="#F9F050" fill-rule="nonzero"/>
            <path d="M15,15 L15,23 L9,23 L9,15 C9.00159279,14.4483764 9.44837635,14.0015928 10,14 L14,14 C14.5516236,14.0015928 14.9984072,14.4483764 15,15 Z" id="Shape" fill="#F4608A" fill-rule="nonzero"/>
            <path d="M1.6209,9.7838 C1.19605607,10.1587075 0.964201098,10.7060864 0.990501828,11.2720867 C1.01680256,11.838087 1.29841969,12.361606 1.7562,12.6955 C2.38117584,13.1377359 3.22777919,13.09412 3.804,12.59 L11.9886,5.2634 L20.1732,12.59 C20.7494682,13.0940584 21.5960695,13.1375915 22.221,12.6953 C22.6787803,12.361406 22.9603974,11.837887 22.9866982,11.2718867 C23.0129989,10.7058864 22.7811439,10.1585075 22.3563,9.7836 L13.3,1.515 C12.5608168,0.82827702 11.4169832,0.82827702 10.6778,1.515" id="Shape" stroke="#40464C" stroke-width="2" stroke-linecap="round" stroke-linejoin="round"/>
            <path d="M1.6208,9.7838 C1.59671874,9.76011987 1.57677591,9.73257173 1.5618,9.7023 L1.6967,9.85 C1.66787741,9.83233115 1.64222167,9.80995421 1.6208,9.7838 Z" id="Shape" fill="#40464C" fill-rule="nonzero"/>
            <path d="M7.7235,4.212 C7.35279174,3.80354483 7.38151918,3.17238999 7.7878,2.7993 L10.0033,0.7765 L11.3518,2.2535 L9.1363,4.2763 C8.72781132,4.64701954 8.09662494,4.6182927 7.7235,4.212 Z" id="Shape" fill="#40464C" fill-rule="nonzero"/>
            <path d="M2.3035,10.5146 L0.955,9.0376 L2.6183,7.5191 C3.02634301,7.14817366 3.65764392,7.17756924 4.02945283,7.58480822 C4.40126173,7.99204719 4.37323303,8.62341027 3.9668,8.9961 L2.3035,10.5146 Z" id="Shape" fill="#40464C" fill-rule="nonzero"/>
            <path d="M2.9886,13.0158 L2.9886,22 C2.9886,22.5522847 3.43631525,23 3.9886,23 L19.9886,23 C20.5408847,23 20.9886,22.5522847 20.9886,22 L20.9886,13" id="Shape" stroke="#40464C" stroke-width="2" stroke-linecap="round" stroke-linejoin="round"/>
            <path d="M10,14 L14,14 C14.5522847,14 15,14.4477153 15,15 L15,23 L9,23 L9,15 C9,14.4477153 9.44771525,14 10,14 Z" id="Shape" stroke="#40464C" stroke-width="2" stroke-linecap="round" stroke-linejoin="round"/>
        </g>
    </g>
</svg>
