<?xml version="1.0" encoding="UTF-8"?>
<svg xmlns="http://www.w3.org/2000/svg" xmlns:xlink="http://www.w3.org/1999/xlink" width="24px" height="20px" viewBox="0 0 24 20" version="1.1">
    <!-- Generator: Sketch 51.3 (57544) - http://www.bohemiancoding.com/sketch -->
    <title>006 - Pound Coin</title>
    <desc>Created with Sketch.</desc>
    <defs/>
    <g id="Page-1" stroke="none" stroke-width="1" fill="none" fill-rule="evenodd">
        <g id="006---Pound-Coin">
            <g id="Outline" transform="translate(1.000000, 1.000000)" fill-rule="nonzero">
                <path d="M13,18 L9,18 C4.0294373,17.9999999 1.34110452e-07,13.9705627 1.34110451e-07,9 C1.34110451e-07,4.0294373 4.0294373,7.40671573e-08 9,4.4408921e-16 L13,4.4408921e-16 C8.03,0 7,4.03 7,9 C7,13.97 8.03,18 13,18 Z" id="Shape" fill="#F9A52B"/>
                <circle id="Oval" fill="#F9F050" cx="13" cy="9" r="9"/>
                <path d="M11,14 C10.4477153,14 10,13.5522847 10,13 L10,7 C10,4.790861 11.790861,3 14,3 C16.209139,3 18,4.790861 18,7 C18,7.55228475 17.5522847,8 17,8 C16.4477153,8 16,7.55228475 16,7 C16,5.8954305 15.1045695,5 14,5 C12.8954305,5 12,5.8954305 12,7 L12,13 C12,13.2652165 11.8946432,13.5195704 11.7071068,13.7071068 C11.5195704,13.8946432 11.2652165,14 11,14 Z" id="Shape" fill="#55BAFF"/>
                <path d="M15,14 L9,14 C8.44771525,14 8,13.5522847 8,13 C8,12.4477153 8.44771525,12 9,12 L15,12 C15.5519878,11.9992838 15.9992838,11.5519878 16,11 C16,10.4477153 16.4477153,10 17,10 C17.5522847,10 18,10.4477153 18,11 C17.9981813,12.6561003 16.6561003,13.9981813 15,14 Z" id="Shape" fill="#55BAFF"/>
                <path d="M13,10 L9,10 C8.44771525,10 8,9.55228475 8,9 C8,8.44771525 8.44771525,8 9,8 L13,8 C13.5522847,8 14,8.44771525 14,9 C14,9.55228475 13.5522847,10 13,10 Z" id="Shape" fill="#55BAFF"/>
            </g>
            <g id="Layer_5">
                <circle id="Oval" stroke="#40464C" stroke-width="2" stroke-linecap="round" stroke-linejoin="round" cx="14" cy="10" r="9"/>
                <path d="M1,10 C1,14.9705627 5.02943725,19 10,19 L14,19" id="Shape" stroke="#40464C" stroke-width="2" stroke-linecap="round" stroke-linejoin="round"/>
                <path d="M14,1 L10,1" id="Shape" stroke="#40464C" stroke-width="2" stroke-linecap="round" stroke-linejoin="round"/>
                <path d="M10,2 C8.77086153,2.00648142 7.55929929,2.29246209 6.457,2.8363 C5.97882,3.04225805 5.42185652,2.87044782 5.1428,2.4309 C4.99466683,2.19499903 4.95654542,1.90630463 5.03836859,1.64003846 C5.12019177,1.37377229 5.31385581,1.15630521 5.5689,1.0443 C6.94729821,0.363757725 8.46277007,0.00659871986 10,4.4408921e-16" id="Shape" fill="#40464C" fill-rule="nonzero"/>
                <path d="M0,10 C0.00412711248,8.51260491 0.338868556,7.04472952 0.98,5.7026 C1.08793221,5.44527036 1.30284667,5.24789764 1.56841419,5.16221334 C1.83398172,5.07652904 2.1237242,5.1110762 2.3617,5.2568 C2.80350754,5.53027243 2.98259865,6.08324216 2.785,6.5638 C2.27218418,7.63696466 2.00406461,8.81061111 2,10" id="Shape" fill="#40464C" fill-rule="nonzero"/>
                <path d="M12,14 L12,8 C12,6.34314575 13.3431458,5 15,5 C16.6568542,5 18,6.34314575 18,8" id="Shape" stroke="#40464C" stroke-width="2" stroke-linecap="round" stroke-linejoin="round"/>
                <path d="M18.0000004,12 C18.0003186,12.5305306 17.7897072,13.0394236 17.4145654,13.4145654 C17.0394236,13.7897072 16.5305306,14.0003186 16,14 L10,14.0000004" id="Shape" stroke="#40464C" stroke-width="2" stroke-linecap="round" stroke-linejoin="round"/>
                <path d="M10,10 L14,10" id="Shape" stroke="#40464C" stroke-width="2" stroke-linecap="round" stroke-linejoin="round"/>
            </g>
        </g>
    </g>
</svg>
