<?xml version="1.0" encoding="UTF-8"?>
<svg width="60px" height="20px" viewBox="0 0 60 20" version="1.1" xmlns="http://www.w3.org/2000/svg" xmlns:xlink="http://www.w3.org/1999/xlink">
    <!-- Generator: Sketch 41.1 (35376) - http://www.bohemiancoding.com/sketch -->
    <title>48 -Measure Tool- (design, graphic, tool)</title>
    <desc>Created with Sketch.</desc>
    <defs></defs>
    <g id="Page-1" stroke="none" stroke-width="1" fill="none" fill-rule="evenodd">
        <g id="Icons" transform="translate(-960.000000, -840.000000)">
            <g id="48--Measure-Tool--(design,-graphic,-tool)" transform="translate(961.000000, 841.000000)">
                <polygon id="Fill-418" fill="#FFE100" points="0 18 58 18 58 0 0 0"></polygon>
                <polygon id="Fill-419" fill="#FFA800" points="55 18 58 18 58 0 55 0"></polygon>
                <polygon id="Fill-420" fill="#FFFFFF" points="0 18 3 18 3 0 0 0"></polygon>
                <polygon id="Stroke-1123" stroke="#000000" stroke-width="2" stroke-linejoin="round" points="0 18 58 18 58 0 0 0"></polygon>
                <path d="M29,6 L29,18" id="Stroke-1124" stroke="#000000" stroke-width="2" stroke-linecap="round" stroke-linejoin="round"></path>
                <path d="M45,6 L45,18" id="Stroke-1125" stroke="#000000" stroke-width="2" stroke-linecap="round" stroke-linejoin="round"></path>
                <path d="M13,6 L13,18" id="Stroke-1126" stroke="#000000" stroke-width="2" stroke-linecap="round" stroke-linejoin="round"></path>
                <path d="M37,12 L37,18" id="Stroke-1127" stroke="#000000" stroke-width="2" stroke-linecap="round" stroke-linejoin="round"></path>
                <path d="M21,12 L21,18" id="Stroke-1128" stroke="#000000" stroke-width="2" stroke-linecap="round" stroke-linejoin="round"></path>
                <path d="M6,12 L6,18" id="Stroke-1129" stroke="#000000" stroke-width="2" stroke-linecap="round" stroke-linejoin="round"></path>
                <path d="M52,12 L52,18" id="Stroke-1130" stroke="#000000" stroke-width="2" stroke-linecap="round" stroke-linejoin="round"></path>
            </g>
        </g>
    </g>
</svg>