<?xml version="1.0" encoding="UTF-8"?>
<svg xmlns="http://www.w3.org/2000/svg" xmlns:xlink="http://www.w3.org/1999/xlink" width="60px" height="60px" viewBox="0 0 60 60" version="1.1">
    <!-- Generator: Sketch 51.3 (57544) - http://www.bohemiancoding.com/sketch -->
    <title>008 - Surfing</title>
    <desc>Created with Sketch.</desc>
    <defs/>
    <g id="Page-1" stroke="none" stroke-width="1" fill="none" fill-rule="evenodd" stroke-linecap="round" stroke-linejoin="round">
        <g id="008---Surfing" transform="translate(1.000000, 1.000000)" stroke="#000000" stroke-width="2">
            <circle id="Oval" cx="26" cy="5" r="5"/>
            <path d="M29.88,12.68 C29.938626,12.7386804 29.9921524,12.802243 30.04,12.87 L30.77,13.86" id="Shape"/>
            <path d="M33.09,43.44 L33.04,43.15" id="Shape"/>
            <path d="M33.09,43.44 L32.56,46.97" id="Shape"/>
            <path d="M29.69,28.9 L29.69,28.89" id="Shape"/>
            <path d="M32.46,39.8 L33.04,43.15 L33.09,43.44 L32.56,46.97 L31.37,55.03 C31.1297561,56.6675243 29.6075243,57.8002439 27.97,57.56 C26.3324757,57.3197561 25.1997561,55.7975243 25.44,54.16 L26.66,45.87 L20.26,55.3 C19.6601749,56.1913326 18.6292893,56.6936022 17.5576836,56.6166265 C16.486078,56.5396508 15.537564,55.8951967 15.0712925,54.9272841 C14.6050209,53.9593715 14.6922688,52.8159609 15.3,51.93 L20.57,44.16" id="Shape"/>
            <path d="M29.84,12.63 C29.1614477,11.9101427 28.1199161,11.6625334 27.19,12" id="Shape"/>
            <path d="M32.75,24.17 L31.73,23.58" id="Shape"/>
            <path d="M27.19,12 C26.9570418,12.0790081 26.7377633,12.1937076 26.54,12.34 C26.0064919,12.7322062 25.650837,13.3204606 25.5514195,13.9751153 C25.452002,14.62977 25.6169824,15.2970893 26.01,15.83 L28.92,19.77 L31,22.59 L31.73,23.58 L32.75,24.17 L38.8,27.66 C39.573926,28.1137109 40.5316237,28.1179583 41.3095435,27.6711297 C42.0874634,27.224301 42.5663275,26.3949085 42.5643553,25.4977958 C42.562383,24.600683 42.079877,23.773404 41.3,23.33 L35.13,19.77 L30.77,13.86 L30.04,12.87 C29.9921524,12.802243 29.938626,12.7386804 29.88,12.68 C29.87,12.67 29.86,12.65 29.84,12.63" id="Shape"/>
            <polyline id="Shape" points="28.92 19.77 31 22.59 31.73 23.58"/>
            <path d="M27.48,17.81 L27.48,17.82 C26.44,18.23 25.41,18.68 24.37,19.17 C24.25,19.23 24.12,19.29 24,19.35 C21.43,20.57 19.01,21.87 16.76,23.22 C5.26,30.08 -1.75,38.11 0.42,42.69 C2.27,46.62 10.36,46.97 20.57,44.16 C24.6412292,43.0197638 28.6167536,41.56196 32.46,39.8 C32.91,39.61 33.35,39.4 33.8,39.19 C49.64,31.73 59.78,19.96 57.75,15.67 C56.45,12.9 45.21,12 32.38,16.05" id="Shape"/>
            <polyline id="Shape" points="7.7 39.26 29.69 28.9 29.69 28.89 35.88 25.98"/>
            <path d="M50.47,19.1 L41.38,23.38" id="Shape"/>
            <path d="M16.76,23.22 L18.81,18.44 C18.9373622,18.1507599 19.1288617,17.8942874 19.37,17.69 L23.03,14.64" id="Shape"/>
            <path d="M26.66,45.87 L27.0511,42.0478" id="Shape"/>
            <path d="M31,22.59 L28.92,19.77 L27.48,17.82 C27.48,17.81 27.1,17.3 26.72,16.8 C26.64,16.68 26.55,16.56 26.47,16.45 C26.22,16.11 26.01,15.83 26.01,15.83 C25.6169824,15.2970893 25.452002,14.62977 25.5514195,13.9751153 C25.650837,13.3204606 26.0064919,12.7322062 26.54,12.34 C26.5705044,12.3156241 26.6041369,12.2954446 26.64,12.28" id="Shape"/>
            <path d="M27.79,11.87 C27.81,11.87 27.82,11.86 27.83,11.86 C27.83,11.86 25.84,11.7954 25.18,11.85 C23.8758,11.9579 23,13.79 23,15 L23,19.92" id="Shape"/>
        </g>
    </g>
</svg>
