<?xml version="1.0" encoding="UTF-8"?>
<svg xmlns="http://www.w3.org/2000/svg" xmlns:xlink="http://www.w3.org/1999/xlink" width="44px" height="60px" viewBox="0 0 44 60" version="1.1">
    <!-- Generator: Sketch 52.6 (67491) - http://www.bohemiancoding.com/sketch -->
    <title>052 - Wheelchair Access</title>
    <desc>Created with Sketch.</desc>
    <g id="Page-1" stroke="none" stroke-width="1" fill="none" fill-rule="evenodd">
        <g id="052---Wheelchair-Access" transform="translate(-1.000000, 0.000000)">
            <path d="M33.34,47.54 C31.2111203,54.7306944 24.3735961,59.4779962 16.8923176,58.9596472 C9.411039,58.4412982 3.29355093,52.7963933 2.1766838,45.3808136 C1.05981667,37.9652339 5.24327337,30.7688944 12.24,28.07 C12.34,29.43 12.5,30.84 12.74,32.21 C7.43404933,34.7928695 4.79355035,40.8502118 6.51272656,46.4954541 C8.23190277,52.1406964 13.8004321,55.6980989 19.6453787,54.8851252 C25.4903253,54.0721516 29.8766691,49.1301257 29.99,43.23 L33.34,47.54 Z" id="Path" fill="#02A9F4"/>
            <path d="M29.99,43.23 C29.9687467,44.3180146 29.79884,45.3980154 29.485,46.44 L30.34,47.54 C28.4874203,53.8069791 23.0066419,58.3151569 16.5,58.924 C17,58.97 17.5,59 18,59 C25.0886195,59.0035862 31.3330513,54.3385804 33.34,47.54 L29.99,43.23 Z" id="Path" fill="#0377BC"/>
            <path d="M40.46,50.16 C38.7129918,51.5121098 36.2019514,51.1993467 34.84,49.46 L33.34,47.54 L29.99,43.23 L29.99,43.22 L29.04,42 L23,42 C22.6,42 22.22,42 21.84,41.99 C18.42,41.95 15.8,41.5 14,37 C13.413152,35.4519479 12.9908268,33.8464418 12.74,32.21 C12.5,30.84 12.34,29.43 12.24,28.07 C12,25.14 12,22.47 12,21 C11.9325702,19.3889746 12.5430299,17.8233586 13.6831943,16.6831943 C14.8233586,15.5430299 16.3889746,14.9325702 18,15 C23,15 25,20 25,27 C25,27.69 25.03,28.36 25.08,29 L23.23,29 C22.99,28.36 22.7,27.58 22.34,26.62 L20.84,22.62 C20.3539894,21.3276537 18.9123463,20.6739894 17.62,21.16 C16.3276537,21.6460106 15.6739894,23.0876537 16.16,24.38 C16.16,24.38 19,31.96 19.15,32.35 C19.1872607,32.4557763 19.2306679,32.5592859 19.28,32.66 C19.7166195,33.4815478 20.5696427,33.9964357 21.5,34 L31,34 C32.2337139,34.0017807 33.3984336,34.5693973 34.16,35.54 L41.16,44.54 C42.5115393,46.2871645 42.198832,48.7977572 40.46,50.16 Z" id="Path" fill="#02A9F4"/>
            <path d="M21.972,25.639 L22.34,26.62 C22.7,27.58 22.99,28.36 23.23,29 L25.08,29 C25.03,28.36 25,27.69 25,27 C25,20 23,15 18,15 C17.4799048,14.9992157 16.9613517,15.0565718 16.454,15.171 C20.1,16.005 21.749,20.059 21.972,25.639 Z" id="Path" fill="#0377BC"/>
            <path d="M41.16,44.54 L34.16,35.54 C33.3984336,34.5693973 32.2337139,34.0017807 31,34 L28,34 C29.2337139,34.0017807 30.3984336,34.5693973 31.16,35.54 L38.16,44.54 C39.5115393,46.2871645 39.198832,48.7977572 37.46,50.16 C37.1707538,50.3809901 36.8519936,50.5603979 36.513,50.693 C36.9846871,50.8887908 37.4893402,50.9929795 38,51 C39.5297659,51.0022545 40.9268475,50.1318129 41.5990421,48.7576429 C42.2712368,47.3834729 42.1008087,45.7462619 41.16,44.54 Z" id="Path" fill="#0377BC"/>
            <path d="M33,31.5 C33,32.8807119 31.8807119,34 30.5,34 L21.5,34 C20.5696427,33.9964357 19.7166195,33.4815478 19.28,32.66 C19.2306679,32.5592859 19.1872607,32.4557763 19.15,32.35 C19,31.96 16.16,24.38 16.16,24.38 C15.6739894,23.0876537 16.3276537,21.6460106 17.62,21.16 C18.9123463,20.6739894 20.3539894,21.3276537 20.84,22.62 L22.34,26.62 C22.7,27.58 22.99,28.36 23.23,29 L30.5,29 C31.1630412,29 31.798926,29.2633921 32.267767,29.732233 C32.7366079,30.201074 33,30.8369588 33,31.5 Z" id="Path" fill="#02A9F4"/>
            <path d="M30.5,29 L27.5,29 C28.8807119,29 30,30.1192881 30,31.5 C30,32.8807119 28.8807119,34 27.5,34 L30.5,34 C31.8807119,34 33,32.8807119 33,31.5 C33,30.1192881 31.8807119,29 30.5,29 Z" id="Path" fill="#0377BC"/>
            <circle id="Oval" fill="#02A9F4" cx="17" cy="8" r="7"/>
            <path d="M17,1 C16.4955116,1.00072471 15.9925833,1.05604683 15.5,1.165 C18.7064126,1.87378162 20.9891145,4.7161831 20.9891145,8 C20.9891145,11.2838169 18.7064126,14.1262184 15.5,14.835 C18.1211486,15.414393 20.8427728,14.4437844 22.5057888,12.3365363 C24.1688048,10.2292883 24.4802631,7.35660446 23.30752,4.94190155 C22.134777,2.52719863 19.6844178,0.995840114 17,1 Z" id="Path" fill="#0377BC"/>
            <path d="M44,50 L41.977,50 C43.3308206,48.198269 43.3197848,45.7156241 41.95,43.926 L34.95,34.926 C34.5056883,34.3639708 33.9461341,33.9036429 33.309,33.576 C33.7573112,32.976692 33.9997132,32.2484337 34,31.5 C34,30.5717423 33.6312511,29.6815036 32.9748737,29.0251263 C32.3184964,28.3687489 31.4282577,28 30.5,28 L26.04,28 C26.026,27.665 26,27.325 26,27 C26,19.287 23.669,16.052 21.239,14.772 C24.3498959,12.8231292 25.7338985,9.00618722 24.5950388,5.51637784 C23.4561791,2.02656847 20.0871304,-0.239269054 16.4255035,0.0219961455 C12.7638766,0.283261345 9.75066588,3.00448724 9.11883228,6.62063951 C8.48699868,10.2367918 10.3989159,13.8185625 13.755,15.306 C11.988188,16.6617685 10.966585,18.7732049 11,21 C11,22.37 11,24.756 11.187,27.437 C4.49099075,30.3587246 0.412236058,37.2337216 1.05753406,44.5108505 C1.70283207,51.7879794 6.92770831,57.8379787 14.0333588,59.5358438 C21.1390093,61.2337089 28.5345644,58.1993082 32.4,52 L44,52 C44.5522847,52 45,51.5522847 45,51 C45,50.4477153 44.5522847,50 44,50 Z M32,31.5 C32.0000183,32.3245375 31.3345192,32.9945031 30.51,33 L21.5,33 C20.9403394,33.0000596 20.4271901,32.6885459 20.169,32.192 C20.1375774,32.1311975 20.110185,32.0683955 20.087,32.004 C19.939,31.604 17.096,24.026 17.096,24.026 C16.8052574,23.2503173 17.1983402,22.3858038 17.974,22.095 C18.1421324,22.0317367 18.32036,21.9995473 18.5,22 C19.1240489,22.0021334 19.6815853,22.3904176 19.9,22.975 L21.422,27.031 C21.769,27.956 22.053,28.714 22.283,29.344 C22.4270234,29.7384207 22.8021067,30.0008592 23.222,30.001 L30.5,30.001 C31.3280368,30.0009998 31.999448,30.6719634 32,31.5 Z M11,8 C11,4.6862915 13.6862915,2 17,2 C20.3137085,2 23,4.6862915 23,8 C23,11.3137085 20.3137085,14 17,14 C13.6876624,13.9966926 11.0033074,11.3123376 11,8 Z M18,16 C22.959,16 24,21.981 24,27 C24,27.326 24.027,27.667 24.04,28 L23.925,28 C23.742,27.507 23.525,26.94 23.278,26.27 L21.778,22.27 C21.0989659,20.4601629 19.0813371,19.5434659 17.2715,20.2225 C15.4616629,20.9015341 14.5449659,22.9191629 15.224,24.729 L18.211,32.7 C18.2639836,32.8457551 18.3267945,32.9877478 18.399,33.125 C19.0015948,34.2798837 20.1973609,35.0028961 21.5,35 L31,35 C31.9247474,35.0038883 32.7974102,35.4286259 33.371,36.154 L40.371,45.154 C41.3820838,46.4673401 41.1484639,48.3496743 39.847,49.376 C39.3193471,49.7863884 38.6684284,50.0062981 38,50 C37.0737045,50.0028209 36.1982648,49.5767317 35.629,48.846 L29.829,41.386 C29.6396077,41.1425334 29.3484565,41.0000944 29.04,41 L23,41 C22.61,40.993 22.238,41 21.852,40.99 C18.708,40.953 16.529,40.63 14.929,36.629 C13,31.808 13,23.956 13,21 C12.9403014,19.6565043 13.4478881,18.3497527 14.3988204,17.3988204 C15.3497527,16.4478881 16.6565043,15.9403014 18,16 Z M13.071,37.371 C15.119,42.489 18.382,42.95 21.814,42.99 C22.2,43 22.591,43 23,43 L28.551,43 L28.968,43.537 C28.6891954,49.5048505 23.6939824,54.1568468 17.7214071,54.0108493 C11.7488317,53.8648518 6.9868818,48.9743451 7,43 C6.98424076,39.267489 8.87945155,35.7864587 12.023,33.774 C12.2704842,35.0003562 12.6210625,36.2036293 13.071,37.371 Z M18,58 C11.0318218,57.9946063 4.98495698,53.1912668 3.40318629,46.4049911 C1.82141559,39.6187153 5.12132744,32.636794 11.369,29.551 C11.442,30.251 11.534,30.959 11.64,31.662 C6.48223391,34.5552312 3.9271811,40.5650953 5.42237183,46.2867858 C6.91756255,52.0084764 12.086174,55.9999944 18,56 C24.1074154,55.9746556 29.381958,51.7205501 30.7,45.757 L32.227,47.723 C30.1770494,53.8435352 24.454667,57.977149 18,58 Z M33.662,49.574 L33.993,50 L33.477,50 C33.5403333,49.8593333 33.602,49.7173333 33.662,49.574 Z" id="Shape" fill="#000000" fill-rule="nonzero"/>
        </g>
    </g>
</svg>
